<?xml version="1.0" encoding="UTF-8"?>
<svg version="1.1"
    xmlns="http://www.w3.org/2000/svg" width="319" height="67">
    <path d="M0 0 C3.3166251 0.39019119 4.9446071 0.95734582 7.6328125 3.02734375 C12.3905836 5.81466905 16.4588166 5.62412993 21.875 5.5625 C22.83019531 5.58634766 23.78539063 5.61019531 24.76953125 5.63476562 C30.77822093 5.62240207 34.52384517 4.72003901 39.34814453 1.07397461 C41 0 41 0 44 0 C44.51269472 10.15895085 43.11456912 17.77695877 37 26 C33.29896173 24.76632058 31.73190399 22.73190399 29 20 C23.90183724 18.30061241 19.61343074 18.36071612 14.6875 20.3125 C11.12741227 22.54790392 9.53217633 23.85582089 7.75 27.6875 C6.50018054 33.20753596 7.13796554 37.24277591 9.625 42.3125 C12.59599011 45.67440986 14.6750227 46.79467846 19 48 C27.83310582 48.36932847 33.00848897 44.05803582 39.2890625 38.3671875 C41 37 41 37 43.171875 36.1328125 C43.77515625 35.75898437 44.3784375 35.38515625 45 35 C45.6281529 32.64660322 45.6281529 32.64660322 45.625 30 C45.80664653 25.19335347 45.80664653 25.19335347 48 23 C51 22.75 51 22.75 54 23 C56.75544831 25.75544831 56.36279855 27.65893377 56.5625 31.5 C56.66407271 35.90933762 56.66407271 35.90933762 58 40 C58.03738281 38.95199219 58.07476562 37.90398438 58.11328125 36.82421875 C58.17894515 35.44527695 58.24539235 34.06637229 58.3125 32.6875 C58.33505859 31.99720703 58.35761719 31.30691406 58.38085938 30.59570312 C58.53652158 27.66642337 58.68251322 25.48092672 60.3203125 23 C62.81415039 21.51529651 64.92954911 22.20039062 67.6796875 22.6875 C70.2390545 23.03219589 72.61041847 22.93558449 75.1875 22.8125 C78.78747147 22.76819266 79.84455731 22.90800331 83.0625 24.8125 C86.96066135 29.21364991 86.21835197 34.31285794 86.25 39.875 C86.270625 40.77347656 86.29125 41.67195313 86.3125 42.59765625 C86.34189595 47.57292042 86.2291814 50.93802971 83 55 C80.125 54.6875 80.125 54.6875 77 54 C74.8834437 50.82516555 74.77070851 50.33300995 75.0234375 46.76953125 C75.075 45.96708984 75.1265625 45.16464844 75.1796875 44.33789062 C75.27636719 43.08782227 75.27636719 43.08782227 75.375 41.8125 C75.46007812 40.5450293 75.46007812 40.5450293 75.546875 39.25195312 C75.68820824 37.16728783 75.8428325 35.08353134 76 33 C72.90281653 33.90867487 72.90281653 33.90867487 70 36 C69.44808237 38.91067175 69.24796523 41.09851688 69.3125 44 C69.3590642 51.4768806 69.3590642 51.4768806 67.640625 53.98046875 C65.31429157 55.42611881 63.68177978 55.34381792 61 55 C59 53 59 53 58.875 49.375 C58.91625 48.26125 58.9575 47.1475 59 46 C58.01 46 57.02 46 56 46 C55.855625 47.134375 55.71125 48.26875 55.5625 49.4375 C55 53 55 53 54 54 C47.53846154 54.35897436 47.53846154 54.35897436 44 52 C43.57589844 52.39832031 43.15179688 52.79664063 42.71484375 53.20703125 C42.12832031 53.73683594 41.54179688 54.26664063 40.9375 54.8125 C40.36902344 55.33457031 39.80054688 55.85664062 39.21484375 56.39453125 C31.47691274 62.0035077 23.11444286 61.93666211 14 61 C6.62626938 58.93688366 1.15912269 54.37658598 -3 48 C-5.56585328 42.97068665 -6.51863661 38.65824389 -6.4375 33.0625 C-6.43355225 32.3624585 -6.42960449 31.66241699 -6.42553711 30.94116211 C-6.26490668 25.16720381 -5.22664238 20.22664238 -1 16 C-0.76321284 13.30764224 -0.57801975 10.63501844 -0.4375 7.9375 C-0.37272461 6.79958008 -0.37272461 6.79958008 -0.30664062 5.63867188 C-0.20026367 3.75934562 -0.09960066 1.87969756 0 0 Z " fill="#FEFEFE" transform="translate(6,0)"/>
    <path d="M0 0 C3.77640926 1.45025603 5.75160547 3.62740821 8 7 C8.30078125 9.15625 8.30078125 9.15625 8.3125 11.5 C8.32925781 12.2734375 8.34601563 13.046875 8.36328125 13.84375 C7.92078843 16.47015897 7.02185443 17.33557103 5 19 C5.804375 19.4125 6.60875 19.825 7.4375 20.25 C10 22 10 22 11 23.875 C11 27.10877558 10.04487122 28.5078132 8 31 C1.80600299 34.90491116 -4.85603939 34.66369699 -12 34 C-17.30745124 32.29403353 -19.79967354 29.38901915 -23 25 C-24.86574221 19.40277336 -24.30486188 14.31646156 -22.125 8.9296875 C-17.05174951 0.22765368 -9.31748925 -0.90012298 0 0 Z M-9 10 C-9.99 11.485 -9.99 11.485 -11 13 C-8.36 12.67 -5.72 12.34 -3 12 C-3 11.34 -3 10.68 -3 10 C-5.91634129 9.7497843 -5.91634129 9.7497843 -9 10 Z M-9 23 C-9 23.33 -9 23.66 -9 24 C-6.69 24 -4.38 24 -2 24 C-2 23.67 -2 23.34 -2 23 C-4.31 23 -6.62 23 -9 23 Z " fill="#FFFFFF" transform="translate(199,21)"/>
    <path d="M0 0 C3.82985683 1.76562891 6.26279617 4.01997088 7.74609375 8.00390625 C8.39792405 11.54529352 8.1116312 13.76703054 6.5625 17 C6.046875 17.66 5.53125 18.32 5 19 C5.825 19.556875 6.65 20.11375 7.5 20.6875 C10 23 10 23 10.6875 25.4375 C9.64234157 29.33309053 7.21674512 30.72935639 4 33 C-2.37253042 35.12417681 -10.38812551 35.18259293 -16.5625 32.375 C-20.20613433 30.14876254 -22.26293326 27.98077793 -24 24 C-24.80971252 17.75497587 -24.668307 12.31272048 -21 7 C-14.80916446 0.0154676 -9.19943164 -1.34508661 0 0 Z M-12 13 C-7.545 12.505 -7.545 12.505 -3 12 C-3 11.34 -3 10.68 -3 10 C-8.095342 9.59189416 -8.095342 9.59189416 -12 13 Z M-9 23 C-9 23.33 -9 23.66 -9 24 C-5.58343976 24.16677282 -5.58343976 24.16677282 -2 24 C-1.34 23.34 -0.68 22.68 0 22 C-3.11227195 22 -5.94152152 22.45627049 -9 23 Z " fill="#FFFFFF" transform="translate(118,21)"/>
    <path d="M0 0 C3.53214485 2.01836849 5.80160052 4.07796533 7 8 C7.45304906 13.61780838 7.21244804 17.18132794 4 22 C-0.59838277 26.71053845 -5.76436652 28.99248491 -12 31 C-12.66 31 -13.32 31 -14 31 C-13.96519531 31.84304687 -13.93039063 32.68609375 -13.89453125 33.5546875 C-13.86746094 34.65039062 -13.84039062 35.74609375 -13.8125 36.875 C-13.77769531 37.96554688 -13.74289063 39.05609375 -13.70703125 40.1796875 C-13.80371094 41.11039063 -13.90039062 42.04109375 -14 43 C-17 45 -17 45 -19.5625 44.75 C-22 44 -22 44 -24 42 C-24.21223494 39.08266569 -24.30396164 36.26267581 -24.30078125 33.34375 C-24.30506638 32.48567749 -24.3093515 31.62760498 -24.31376648 30.74353027 C-24.31951408 28.92782474 -24.32000688 27.11209618 -24.31567383 25.29638672 C-24.31251248 22.51099601 -24.33597178 19.72666563 -24.36132812 16.94140625 C-24.36360086 15.17968885 -24.36430474 13.41796857 -24.36328125 11.65625 C-24.372491 10.81976929 -24.38170074 9.98328857 -24.39118958 9.12145996 C-24.37231445 6.77539062 -24.37231445 6.77539062 -24 3 C-21 1 -21 1 -18.0625 1.5 C-15.11865648 2.29099641 -15.11865648 2.29099641 -13.1484375 1.0546875 C-9.04956982 -0.9574839 -4.44866638 -0.54123241 0 0 Z M-11.25 12.1875 C-14.24396656 14.68828804 -14.24396656 14.68828804 -14.375 17.8125 C-14.25125 18.534375 -14.1275 19.25625 -14 20 C-9.00724943 18.72278474 -6.42388092 16.82669043 -3 13 C-3.33 12.01 -3.66 11.02 -4 10 C-8.09987625 9.62774909 -8.09987625 9.62774909 -11.25 12.1875 Z " fill="#FFFFFF" transform="translate(154,22)"/>
    <path d="M0 0 C2 3 2 3 2 5.1875 C0.96280885 8.1046001 -0.23854824 9.63182292 -2.1875 12 C-3.81404253 14.00984554 -3.81404253 14.00984554 -5 16 C-4.79372806 18.68646632 -4.79372806 18.68646632 -3 21 C1.03226533 27.27403016 1.03226533 27.27403016 0.875 30.8125 C0 33 0 33 -2 35 C-4.375 35.4375 -4.375 35.4375 -7 35 C-9.125 32.6875 -9.125 32.6875 -11 30 C-11.98230498 28.9826127 -12.97469597 27.97403883 -14 27 C-15.0828125 28.4540625 -15.0828125 28.4540625 -16.1875 29.9375 C-18.04236071 32.16018011 -18.8487972 32.94239893 -21.625 34 C-24 34 -24 34 -27 32 C-27.65788704 28.34507203 -27.59179603 25.98289602 -25.65234375 22.76171875 C-24.16233096 20.77855752 -22.63075768 18.8685765 -21 17 C-21.433125 16.41992188 -21.86625 15.83984375 -22.3125 15.2421875 C-26.85840708 8.86529007 -26.85840708 8.86529007 -27.5625 4.5625 C-27 2 -27 2 -24 0 C-21.0625 0 -21.0625 0 -18 1 C-15.75 4.0625 -15.75 4.0625 -14 7 C-13.34 7 -12.68 7 -12 7 C-10.71354798 5.47176024 -10.71354798 5.47176024 -9.5 3.5625 C-6.6592509 -0.72460612 -5.09279077 -1.52783723 0 0 Z " fill="#FFFFFF" transform="translate(317,21)"/>
    <path d="M0 0 C2.5625 1.125 2.5625 1.125 3.5625 2.125 C4.09419179 7.22037968 2.91541219 9.82252144 0.0625 14 C-0.5871875 14.96679688 -1.236875 15.93359375 -1.90625 16.9296875 C-2.4115625 17.65414062 -2.916875 18.37859375 -3.4375 19.125 C-3.004375 19.70507812 -2.57125 20.28515625 -2.125 20.8828125 C2.42090708 27.25970993 2.42090708 27.25970993 3.125 31.5625 C2.5625 34.125 2.5625 34.125 -0.4375 36.125 C-3.375 36.1875 -3.375 36.1875 -6.4375 35.125 C-8.18602196 32.88988631 -9.21138423 30.71870645 -10.4375 28.125 C-11.200625 28.90875 -11.96375 29.6925 -12.75 30.5 C-15.4375 33.125 -15.4375 33.125 -18.4375 35.125 C-21 34.9375 -21 34.9375 -23.4375 34.125 C-25.4375 31.125 -25.4375 31.125 -25.4375 28.9375 C-23.94328228 24.73501266 -21.22774643 21.56374407 -18.4375 18.125 C-18.870625 17.62871094 -19.30375 17.13242187 -19.75 16.62109375 C-22.68063849 13.04598615 -24.33341149 10.93168593 -24.9375 6.25 C-24.4375 3.125 -24.4375 3.125 -22.4375 1.125 C-20.01953125 0.75 -20.01953125 0.75 -17.4375 1.125 C-15.63671875 2.875 -15.63671875 2.875 -14.125 5.125 C-13.61324219 5.8675 -13.10148438 6.61 -12.57421875 7.375 C-12.19910156 7.9525 -11.82398438 8.53 -11.4375 9.125 C-10.92960938 8.46371094 -10.42171875 7.80242188 -9.8984375 7.12109375 C-4.21788733 0.15337772 -4.21788733 0.15337772 0 0 Z " fill="#FFFFFF" transform="translate(235.4375,19.875)"/>
    <path d="M0 0 C2.04317726 -0.00219749 4.08582362 -0.02040739 6.12890625 -0.03930664 C8.05476563 -0.04220703 8.05476563 -0.04220703 10.01953125 -0.04516602 C11.19854004 -0.0492749 12.37754883 -0.05338379 13.59228516 -0.05761719 C16.41796875 0.18530273 16.41796875 0.18530273 18.41796875 2.18530273 C18.60546875 5.74780273 18.60546875 5.74780273 18.41796875 9.18530273 C17.41796875 10.18530273 17.41796875 10.18530273 14.6953125 10.28295898 C13.04208984 10.26555664 13.04208984 10.26555664 11.35546875 10.24780273 C10.25074219 10.2387793 9.14601563 10.22975586 8.0078125 10.22045898 C7.15316406 10.20885742 6.29851562 10.19725586 5.41796875 10.18530273 C5.43891602 11.07314453 5.45986328 11.96098633 5.48144531 12.87573242 C5.54972552 16.17824729 5.59981745 19.48000943 5.63769531 22.78295898 C5.65777857 24.21081395 5.68505127 25.63858698 5.71972656 27.06616211 C5.76839544 29.12170641 5.79096842 31.17616129 5.80859375 33.23217773 C5.82954102 34.46806641 5.85048828 35.70395508 5.87207031 36.97729492 C5.41796875 40.18530273 5.41796875 40.18530273 3.55761719 42.6159668 C1.41796875 44.18530273 1.41796875 44.18530273 -1.20703125 44.24780273 C-3.58203125 43.18530273 -3.58203125 43.18530273 -4.71826172 41.03222656 C-5.71744469 37.73898954 -5.80875939 35.0120345 -5.77734375 31.57202148 C-5.77089844 30.32485352 -5.76445312 29.07768555 -5.7578125 27.79272461 C-5.74105469 26.49915039 -5.72429687 25.20557617 -5.70703125 23.87280273 C-5.69800781 22.55989258 -5.68898437 21.24698242 -5.6796875 19.89428711 C-5.65614922 16.6577736 -5.62326645 13.42163125 -5.58203125 10.18530273 C-6.57203125 10.51530273 -7.56203125 10.84530273 -8.58203125 11.18530273 C-11.30534613 11.41718895 -13.83242394 11.31623642 -16.58203125 11.18530273 C-18.58203125 9.18530273 -18.58203125 9.18530273 -18.83203125 6.18530273 C-18.58203125 3.18530273 -18.58203125 3.18530273 -16.58203125 1.18530273 C-11.38015994 -0.68567613 -5.4437311 -0.00065809 0 0 Z " fill="#FFFFFF" transform="translate(257.58203125,10.814697265625)"/>
    <path d="M0 0 C2.4375 0.3125 2.4375 0.3125 4.4375 2.3125 C4.64982062 5.30197439 4.74145718 8.19643866 4.73828125 11.1875 C4.74256638 12.06776855 4.7468515 12.94803711 4.75126648 13.85498047 C4.75701441 15.71776468 4.75750664 17.58057134 4.75317383 19.44335938 C4.75001253 22.30116841 4.77347138 25.15794397 4.79882812 28.015625 C4.80110085 29.82291535 4.80180474 31.63020851 4.80078125 33.4375 C4.809991 34.29585449 4.81920074 35.15420898 4.82868958 36.03857422 C4.80981445 38.4453125 4.80981445 38.4453125 4.4375 42.3125 C1.4375 44.3125 1.4375 44.3125 -1.6875 44.0625 C-2.63625 43.815 -3.585 43.5675 -4.5625 43.3125 C-6.18804259 40.06141482 -5.74691026 36.48354094 -5.765625 32.91015625 C-5.77132507 32.07665146 -5.77702515 31.24314667 -5.78289795 30.38438416 C-5.79235044 28.61995718 -5.79888292 26.85551254 -5.80273438 25.09106445 C-5.81244904 22.38917365 -5.84347304 19.6880406 -5.875 16.98632812 C-5.88152913 15.27344203 -5.88677996 13.56055048 -5.890625 11.84765625 C-5.9029718 11.0382106 -5.9153186 10.22876495 -5.92803955 9.39479065 C-5.90555575 3.74513193 -5.90555575 3.74513193 -4.20037842 1.5947113 C-2.5625 0.3125 -2.5625 0.3125 0 0 Z " fill="#FFFFFF" transform="translate(168.5625,10.6875)"/>
    <path d="M0 0 C3.0625 0.1875 3.0625 0.1875 5.0625 2.1875 C5.22949219 4.86132813 5.22949219 4.86132813 5.109375 8.21875 C5.06683594 9.42144531 5.02429688 10.62414062 4.98046875 11.86328125 C4.92503906 13.12527344 4.86960937 14.38726562 4.8125 15.6875 C4.77253906 16.94949219 4.73257812 18.21148437 4.69140625 19.51171875 C4.31781878 28.93218122 4.31781878 28.93218122 2.0625 31.1875 C-0.9375 31.4375 -0.9375 31.4375 -3.9375 31.1875 C-6.44338243 28.68161757 -6.19418281 27.8512514 -6.203125 24.390625 C-6.20570313 23.4315625 -6.20828125 22.4725 -6.2109375 21.484375 C-6.20320313 20.47890625 -6.19546875 19.4734375 -6.1875 18.4375 C-6.19523437 17.4475 -6.20296875 16.4575 -6.2109375 15.4375 C-6.1707139 0.39387536 -6.1707139 0.39387536 0 0 Z " fill="#FFFFFF" transform="translate(282.9375,22.8125)"/>
    <path d="M0 0 C1.175625 0.0825 2.35125 0.165 3.5625 0.25 C5.5625 3.25 5.5625 3.25 5.3125 5.8125 C4.5625 8.25 4.5625 8.25 2.5625 10.25 C-0.4375 10.5625 -0.4375 10.5625 -3.4375 10.25 C-5.4375 7.25 -5.4375 7.25 -5.125 4.125 C-4.21183628 0.30631537 -4.21183628 0.30631537 0 0 Z " fill="#FFFFFF" transform="translate(57.4375,10.75)"/>
    <path d="M0 0 C3 0.1875 3 0.1875 5 1.1875 C6.05066859 4.17786444 6.27524691 5.5884332 4.9375 8.5 C3 10.1875 3 10.1875 -0.0625 10.5625 C-3 10.1875 -3 10.1875 -5 8.1875 C-5.25 5.1875 -5.25 5.1875 -5 2.1875 C-3 0.1875 -3 0.1875 0 0 Z " fill="#FFFFFF" transform="translate(283,10.8125)"/>
</svg>
