<svg xmlns="http://www.w3.org/2000/svg" width="200" height="200" viewBox="0 0 138 134" fill="none">
  <g filter="url(#filter0_d)">
    <path d="M4 66.0067C4 30.0141 33.1752 1 69.0067 1C104.785 1 134 30.0007 134 66.0067C134 81.2787 128.739 95.3295 119.909 106.414C107.737 121.78 89.1368 131 69.0067 131C48.7424 131 30.2496 121.713 18.091 106.414C9.26066 95.3295 4 81.2787 4 66.0067Z" fill="#F9FAFB"/>
  </g>
  <path d="M119.005 63.219H14.4464V39.9878C14.4464 35.4177 18.1457 31.7184 22.7158 31.7184H111.235C115.805 31.7184 119.505 35.4177 119.505 39.9878V63.219Z" fill="#ffdede" stroke="#9b1313"/>
  <path d="M52.75 21.7321C52.75 21.1798 53.1977 20.7321 53.75 20.7321H114.911C117.12 20.7321 118.911 22.5229 118.911 24.7321V27.6963H56.75C54.5409 27.6963 52.75 25.9055 52.75 23.6963V21.7321Z" fill="#9b1313"/>
  <circle cx="37.6607" cy="25.375" r="1.16071" fill="#9b1313"/>
  <circle cx="30.6965" cy="25.375" r="1.16071" fill="#9b1313"/>
  <circle cx="23.7321" cy="25.375" r="1.16071" fill="#9b1313"/>
  <path d="M121.352 103.322L131.295 62.2069C133.05 55.0072 127.59 48.0894 120.195 48.0894H12.6045C5.20883 48.0894 -0.235521 55.008 1.50435 62.206L11.461 103.321C12.7901 108.819 17.7142 112.694 23.3663 112.694H109.434C115.1 112.694 120.009 108.818 121.352 103.322Z" fill="#F9FAFB" stroke="#9b1313"/>
  <path d="M70.9384 89.2143C69.9795 89.2143 69.1842 88.4191 69.1842 87.4367C69.1842 83.5072 63.2432 83.5072 63.2432 87.4367C63.2432 88.4191 62.4479 89.2143 61.4655 89.2143C60.5066 89.2143 59.7113 88.4191 59.7113 87.4367C59.7113 78.8292 72.7161 78.8526 72.7161 87.4367C72.7161 88.4191 71.9208 89.2143 70.9384 89.2143Z" fill="#9b1313"/>
  <path d="M86.025 74.1751H78.6806C77.6982 74.1751 76.903 73.3798 76.903 72.3974C76.903 71.4384 77.6982 70.6432 78.6806 70.6432H86.025C87.0074 70.6432 87.8026 71.4384 87.8026 72.3974C87.8026 73.3798 87.0074 74.1751 86.025 74.1751Z" fill="#9b1313"/>
  <path d="M53.747 74.1748H46.4026C45.4203 74.1748 44.625 73.3796 44.625 72.3972C44.625 71.4382 45.4203 70.6429 46.4026 70.6429H53.747C54.706 70.6429 55.5013 71.4382 55.5013 72.3972C55.5013 73.3796 54.706 74.1748 53.747 74.1748Z" fill="#9b1313"/>
  <circle cx="116.589" cy="98.5001" r="20.2321" fill="#ffdede" stroke="#E5E7EB"/>
  <path d="M124.424 106.335L122.247 104.158M122.683 97.6294C122.683 93.7832 119.565 90.6652 115.718 90.6652C111.872 90.6652 108.754 93.7832 108.754 97.6294C108.754 101.476 111.872 104.594 115.718 104.594C117.634 104.594 119.369 103.82 120.628 102.569C121.897 101.307 122.683 99.56 122.683 97.6294Z" stroke="#9b1313" stroke-width="1.6" stroke-linecap="round"/>
  <defs>
    <filter id="filter0_d" x="2" y="0" width="134" height="134" filterUnits="userSpaceOnUse" color-interpolation-filters="sRGB">
      <feFlood flood-opacity="0" result="BackgroundImageFix"/>
      <feColorMatrix in="SourceAlpha" type="matrix" values="0 0 0 0 0 0 0 0 0 0 0 0 0 0 0 0 0 0 127 0" result="hardAlpha"/>
      <feOffset dy="1"/>
      <feGaussianBlur stdDeviation="1"/>
      <feComposite in2="hardAlpha" operator="out"/>
      <feColorMatrix type="matrix" values="0 0 0 0 0.0627451 0 0 0 0 0.0941176 0 0 0 0 0.156863 0 0 0 0.05 0"/>
      <feBlend mode="normal" in2="BackgroundImageFix" result="effect1_dropShadow"/>
      <feBlend mode="normal" in="SourceGraphic" in2="effect1_dropShadow" result="shape"/>
    </filter>
  </defs>
</svg>
